<?xml version="1.0" encoding="utf-8"?>
<!-- Generator: Adobe Illustrator 22.0.1, SVG Export Plug-In . SVG Version: 6.00 Build 0)  -->
<svg version="1.1" id="Режим_изоляции"
	 xmlns="http://www.w3.org/2000/svg" xmlns:xlink="http://www.w3.org/1999/xlink" x="0px" y="0px" viewBox="0 0 194.7 242.6"
	 style="enable-background:new 0 0 194.7 242.6;" xml:space="preserve">
<g>
	<path d="M173,138.1l-63.5,62.6V13c0-6.6-5.4-12-12.2-12S85.2,6.4,85.2,13v187.6l-63.5-62.6c-4.7-4.7-12.4-4.7-17.2,0
		c-4.7,4.7-4.7,12.3,0,17l84.2,83c2.3,2.3,5.4,3.5,8.6,3.5c3.2,0,6.3-1.3,8.6-3.5l84.2-83c4.8-4.7,4.7-12.3,0-17
		C185.4,133.4,177.7,133.4,173,138.1z"/>
	<path d="M97.3,242.6c-3.5,0-6.9-1.4-9.3-3.8l-84.2-83c-2.5-2.5-3.9-5.7-3.9-9.2c0-3.5,1.4-6.8,3.9-9.2
		c5.1-5.1,13.5-5.1,18.6,0l61.8,60.9V13c0-7.2,5.9-13,13.2-13c7.3,0,13.2,5.8,13.2,13v185.2l61.8-60.9l0,0c5.1-5.1,13.5-5.1,18.6,0
		c2.5,2.5,3.9,5.7,3.9,9.2c0,3.5-1.4,6.8-3.9,9.2l-84.2,83C104.2,241.2,100.8,242.6,97.3,242.6z"/>
</g>
</svg>
