<?xml version="1.0" encoding="UTF-8" standalone="no"?>
<svg
   xmlns:dc="http://purl.org/dc/elements/1.1/"
   xmlns:cc="http://creativecommons.org/ns#"
   xmlns:rdf="http://www.w3.org/1999/02/22-rdf-syntax-ns#"
   xmlns:svg="http://www.w3.org/2000/svg"
   xmlns="http://www.w3.org/2000/svg"
   height="9.1750002"
   width="7.9656854"
   xml:space="preserve"
   viewBox="0 0 7.9656852 9.175"
   y="0px"
   x="0px"
   id="Capa_1"
   version="1.1"><metadata
     id="metadata3438"><rdf:RDF><cc:Work
         rdf:about=""><dc:format>image/svg+xml</dc:format><dc:type
           rdf:resource="http://purl.org/dc/dcmitype/StillImage" /><dc:title></dc:title></cc:Work></rdf:RDF></metadata><defs
     id="defs3436" /><path
     id="path3432"
     d="m 7.9,4.375 -6.7,-4.3 c -0.1,-0.1 -0.3,-0.1 -0.5,0 l -0.6,0.4 c -0.1,0 -0.1,0.1 -0.1,0.2 0,0.1 0,0.1 0.1,0.2 l 5.8,3.7 -5.8,3.7 c -0.1,0 -0.1,0.1 -0.1,0.2 0,0.1 0,0.1 0.1,0.2 l 0.6,0.4 c 0.1,0 0.2,0.1 0.2,0.1 0.1,0 0.2,0 0.2,-0.1 l 6.7,-4.3 C 8,4.575 8,4.475 7.9,4.375 Z"
     /></svg>