<?xml version="1.0" encoding="utf-8"?>
<!-- Generator: Adobe Illustrator 22.0.1, SVG Export Plug-In . SVG Version: 6.00 Build 0)  -->
<svg version="1.1" id="Режим_изоляции"
	 xmlns="http://www.w3.org/2000/svg" xmlns:xlink="http://www.w3.org/1999/xlink" x="0px" y="0px" viewBox="0 0 9 13"
	 style="enable-background:new 0 0 9 13;" xml:space="preserve">
<g>
	<g>
		<g>
			<g>
				<path d="M7.1,6.2C7.6,5.7,8,5,8,4.2c0-1.5-1.2-2.7-2.7-2.7H4.5V1c0-0.3-0.2-0.5-0.5-0.5S3.4,0.7,3.4,1v0.5H2.6V1
					c0-0.3-0.2-0.5-0.5-0.5C1.8,0.5,1.5,0.7,1.5,1v0.5H1C0.7,1.5,0.5,1.8,0.5,2c0,0.3,0.2,0.5,0.5,0.5h0.5v7.9H1
					c-0.3,0-0.5,0.2-0.5,0.5c0,0.3,0.2,0.5,0.5,0.5h0.5V12c0,0.3,0.2,0.5,0.5,0.5s0.5-0.2,0.5-0.5v-0.5h0.8V12
					c0,0.3,0.2,0.5,0.5,0.5c0.3,0,0.5-0.2,0.5-0.5v-0.5h1.2c1.6,0,2.9-1.3,2.9-2.8C8.5,7.6,7.9,6.7,7.1,6.2z M2.6,2.6l2.7,0
					c0.5,0,0.9,0.2,1.2,0.5c0.3,0.3,0.5,0.7,0.5,1.1c0,0.4-0.2,0.9-0.5,1.1C6.1,5.6,5.7,5.8,5.3,5.8H2.6L2.6,2.6L2.6,2.6z M6.9,9.9
					c-0.3,0.3-0.8,0.5-1.3,0.5h-3V6.8h3c0.5,0,1,0.2,1.3,0.5c0.3,0.3,0.5,0.8,0.5,1.3C7.4,9.1,7.2,9.6,6.9,9.9z"/>
				<path d="M4,13c-0.4,0-0.8-0.3-0.9-0.6C2.9,12.7,2.5,13,2.1,13c-0.6,0-1-0.5-1-1l0,0c-0.6,0-1-0.5-1-1s0.5-1,1-1h0
					l0-6.9c-0.6,0-1-0.5-1-1s0.5-1,1-1l0,0c0-0.6,0.5-1,1-1C2.5,0,2.9,0.3,3,0.6C3.2,0.3,3.5,0,4,0c0.6,0,1,0.5,1,1v0h0.3
					C7,1,8.5,2.4,8.5,4.2c0,0.7-0.2,1.4-0.7,1.9C8.6,6.7,9,7.7,9,8.6C9,10.5,7.5,12,5.6,12L5,12C5,12.5,4.5,13,4,13z M2.1,11h1.8v1
					L4,11.5V11h1.7C6.9,11,8,9.9,8,8.6c0-0.8-0.5-1.6-1.2-2L6.2,6.3l0.5-0.5c0.5-0.4,0.8-1,0.8-1.6C7.5,3,6.5,2,5.3,2H4V1L3.9,1.5V2
					H2.1V1L2,1.5V2H1l1,0L2.1,11l-1.1,0L2.1,11L2,12l0.1-0.5V11z M5.6,10.9H2.1V6.3h3.5c0.6,0,1.2,0.2,1.6,0.7
					c0.4,0.4,0.7,1,0.7,1.6c0,0.6-0.2,1.2-0.7,1.6l0,0C6.8,10.7,6.2,10.9,5.6,10.9z M3.1,9.9h2.5c0.4,0,0.7-0.1,0.9-0.4
					C6.8,9.3,6.9,9,6.9,8.6c0-0.3-0.1-0.7-0.4-0.9C6.3,7.5,6,7.3,5.6,7.3H3.1V9.9z M5.3,6.3H2.1V2.1l3.2,0c0.6,0,1.1,0.2,1.5,0.6
					c0.4,0.4,0.6,0.9,0.6,1.5c0,0.6-0.2,1.1-0.6,1.5C6.4,6.1,5.9,6.3,5.3,6.3z M3.1,5.3h2.2c0.3,0,0.6-0.1,0.8-0.3
					c0.2-0.2,0.3-0.5,0.3-0.8c0-0.3-0.1-0.6-0.3-0.8C5.9,3.2,5.6,3.1,5.3,3.1l-2.2,0V5.3z"/>
			</g>
		</g>
	</g>
</g>
</svg>
