<?xml version="1.0" encoding="utf-8"?>
<!-- Generator: Adobe Illustrator 22.0.1, SVG Export Plug-In . SVG Version: 6.00 Build 0)  -->
<svg version="1.1" id="Слой_1" xmlns="http://www.w3.org/2000/svg" xmlns:xlink="http://www.w3.org/1999/xlink" x="0px" y="0px"
	 viewBox="0 0 18 11" style="enable-background:new 0 0 18 11;" xml:space="preserve">
<g>
	<path d="M0.8,1.6h16.4c0.4,0,0.8-0.3,0.8-0.8S17.7,0,17.2,0H0.8C0.3,0,0,0.3,0,0.8S0.3,1.6,0.8,1.6z"/>
	<path d="M17.2,4.7H0.8C0.3,4.7,0,5.1,0,5.5c0,0.4,0.3,0.8,0.8,0.8h16.4c0.4,0,0.8-0.3,0.8-0.8
		C18,5.1,17.7,4.7,17.2,4.7z"/>
	<path d="M17.2,9.4H0.8C0.3,9.4,0,9.8,0,10.2S0.3,11,0.8,11h16.4c0.4,0,0.8-0.3,0.8-0.8S17.7,9.4,17.2,9.4z"/>
</g>
</svg>
