<?xml version="1.0" encoding="UTF-8" standalone="no"?>
<svg
   xmlns:dc="http://purl.org/dc/elements/1.1/"
   xmlns:cc="http://creativecommons.org/ns#"
   xmlns:rdf="http://www.w3.org/1999/02/22-rdf-syntax-ns#"
   xmlns:svg="http://www.w3.org/2000/svg"
   xmlns="http://www.w3.org/2000/svg"
   height="10"
   width="10"
   xml:space="preserve"
   viewBox="0 0 10 10"
   y="0px"
   x="0px"
   id="Capa_1"
   version="1.1"><metadata
     id="metadata3366"><rdf:RDF><cc:Work
         rdf:about=""><dc:format>image/svg+xml</dc:format><dc:type
           rdf:resource="http://purl.org/dc/dcmitype/StillImage" /><dc:title></dc:title></cc:Work></rdf:RDF></metadata><defs
     id="defs3364" /><g
     transform="translate(-214.3,-214.3)"
     id="g3358"><path
       id="path3360"
       d="m 223.6,216.8 c -0.4,-0.8 -1.1,-1.4 -1.8,-1.8 -0.8,-0.4 -1.6,-0.7 -2.5,-0.7 -0.9,0 -1.7,0.2 -2.5,0.7 -0.8,0.4 -1.4,1.1 -1.8,1.8 -0.4,0.8 -0.7,1.6 -0.7,2.5 0,0.9 0.2,1.7 0.7,2.5 0.4,0.8 1.1,1.4 1.8,1.8 0.8,0.4 1.6,0.7 2.5,0.7 0.9,0 1.7,-0.2 2.5,-0.7 0.8,-0.4 1.4,-1.1 1.8,-1.8 0.4,-0.8 0.7,-1.6 0.7,-2.5 0,-0.9 -0.3,-1.8 -0.7,-2.5 z"
        /></g></svg>