<?xml version="1.0" encoding="UTF-8" standalone="no"?>
<svg
   xmlns:dc="http://purl.org/dc/elements/1.1/"
   xmlns:cc="http://creativecommons.org/ns#"
   xmlns:rdf="http://www.w3.org/1999/02/22-rdf-syntax-ns#"
   xmlns:svg="http://www.w3.org/2000/svg"
   xmlns="http://www.w3.org/2000/svg"
   height="9.9069147"
   width="12.05"
   xml:space="preserve"
   viewBox="0 0 12.05 9.9069147"
   y="0px"
   x="0px"
   id="Layer_1"
   version="1.1"><metadata
     id="metadata3480"><rdf:RDF><cc:Work
         rdf:about=""><dc:format>image/svg+xml</dc:format><dc:type
           rdf:resource="http://purl.org/dc/dcmitype/StillImage" /><dc:title></dc:title></cc:Work></rdf:RDF></metadata><defs
     id="defs3478" /><path
     id="path3474"
     d="m 6.025,2.0069151 c 0.5,-1 1.6,-1.99999997 2.8,-1.99999997 1.7,0 3,1.29999997 3.2,2.89999997 0,0 0.1,0.4 -0.1,1.1 -0.3,1 -0.9,1.9 -1.7,2.5 l -4.1,3.4 c 0,0 -0.1,0 -0.1,0 l -4.2,-3.4 c -0.8,-0.7 -1.4,-1.5 -1.7,-2.5 -0.2,-0.7 -0.1,-1.1 -0.1,-1.1 0.2,-1.6 1.3,-2.89999997 3.1,-2.89999997 1.3,-0.1 2.4,0.9 2.9,1.99999997"
      /></svg>