<?xml version="1.0" encoding="utf-8"?>
<!-- Generator: Adobe Illustrator 22.0.1, SVG Export Plug-In . SVG Version: 6.00 Build 0)  -->
<svg version="1.1" id="Layer_1" xmlns="http://www.w3.org/2000/svg" xmlns:xlink="http://www.w3.org/1999/xlink" x="0px" y="0px"
	 viewBox="0 0 11 11" style="enable-background:new 0 0 11 11;" xml:space="preserve">
<g>
	<path d="M7.7,0H3.3C1.5,0,0,1.5,0,3.3v4.4C0,9.5,1.5,11,3.3,11h4.4C9.5,11,11,9.5,11,7.7V3.3C11,1.5,9.5,0,7.7,0z
		 M9.9,7.7c0,1.2-1,2.2-2.2,2.2H3.3c-1.2,0-2.2-1-2.2-2.2V3.3c0-1.2,1-2.2,2.2-2.2h4.4c1.2,0,2.2,1,2.2,2.2V7.7L9.9,7.7z"/>
	<path d="M5.5,2.7c-1.6,0-2.8,1.3-2.8,2.8s1.3,2.8,2.8,2.8s2.8-1.3,2.8-2.8S7.1,2.7,5.5,2.7z M5.5,7.2
		c-1,0-1.7-0.8-1.7-1.7s0.8-1.7,1.7-1.7c1,0,1.7,0.8,1.7,1.7C7.2,6.5,6.5,7.2,5.5,7.2z"/>
	<circle cx="8.4" cy="2.7" r="0.7"/>
</g>
</svg>
