<?xml version="1.0" encoding="utf-8"?>
<!-- Generator: Adobe Illustrator 22.0.1, SVG Export Plug-In . SVG Version: 6.00 Build 0)  -->
<svg version="1.1" id="Слой_1" xmlns="http://www.w3.org/2000/svg" xmlns:xlink="http://www.w3.org/1999/xlink" x="0px" y="0px"
	 viewBox="0 0 25 23.7" style="enable-background:new 0 0 25 23.7;" xml:space="preserve">
<g>
	<path d="M7.8,16.5c0.6,0.8,1,1.7,1,2.8c0,1.3-0.4,2.3-1.3,3.2c-0.8,0.8-1.9,1.3-3.1,1.3c-1.3,0-2.3-0.4-3.2-1.3
		C0.4,21.6,0,20.6,0,19.3s0.3-2.9,1-4.9L5.1,0h3.7L5.4,14.9C6.4,15.2,7.2,15.8,7.8,16.5z M24.1,16.5c0.6,0.8,1,1.7,1,2.8
		c0,1.3-0.4,2.3-1.3,3.2c-0.8,0.8-1.9,1.3-3.1,1.3c-1.3,0-2.3-0.4-3.2-1.3c-0.8-0.8-1.3-1.9-1.3-3.2s0.3-2.9,1-4.9L21.3,0H25
		l-3.4,14.9C22.6,15.2,23.4,15.8,24.1,16.5z"/>
</g>
</svg>
