<?xml version="1.0" encoding="utf-8"?>
<!-- Generator: Adobe Illustrator 22.0.1, SVG Export Plug-In . SVG Version: 6.00 Build 0)  -->
<svg version="1.1" id="Capa_1" xmlns="http://www.w3.org/2000/svg" xmlns:xlink="http://www.w3.org/1999/xlink" x="0px" y="0px"
	 viewBox="0 0 11 11" style="enable-background:new 0 0 11 11;" xml:space="preserve">
<g>
	<g>
		<path d="M0.3,9.2h1.9v1.5c0,0.1,0,0.1,0.1,0.2C2.3,11,2.4,11,2.5,11h1.4C4,11,4,11,4.1,10.9c0.1,0,0.1-0.1,0.1-0.2
			V9.2h4.3c0.1,0,0.1,0,0.2-0.1c0.1,0,0.1-0.1,0.1-0.2V8c0-0.1,0-0.1-0.1-0.2c-0.1,0-0.1-0.1-0.2-0.1H4.2V6.8h2.9
			c1.1,0,2.1-0.3,2.8-1C10.6,5.2,11,4.4,11,3.4c0-1-0.4-1.8-1.1-2.5C9.2,0.3,8.3,0,7.1,0H2.5C2.4,0,2.3,0,2.3,0.1
			c-0.1,0-0.1,0.1-0.1,0.2v4.9H0.3c-0.1,0-0.1,0-0.2,0.1C0,5.3,0,5.3,0,5.4v1.2c0,0.1,0,0.1,0.1,0.2c0.1,0,0.1,0.1,0.2,0.1h1.9v0.9
			H0.3c-0.1,0-0.1,0-0.2,0.1C0,7.9,0,7.9,0,8v1c0,0.1,0,0.1,0.1,0.2C0.1,9.2,0.2,9.2,0.3,9.2z M4.2,1.7h2.8c0.6,0,1.1,0.2,1.5,0.5
			C8.8,2.5,9,2.9,9,3.4c0,0.5-0.2,0.9-0.6,1.3C8,5,7.5,5.2,6.9,5.2H4.2V1.7z"/>
	</g>
</g>
</svg>
